<?xml version="1.0" standalone="no"?>
<!DOCTYPE svg PUBLIC "-//W3C//DTD SVG 20010904//EN"
 "http://www.w3.org/TR/2001/REC-SVG-20010904/DTD/svg10.dtd">
<svg version="1.0" xmlns="http://www.w3.org/2000/svg"
 width="300.000000pt" height="267.000000pt" viewBox="0 0 300.000000 267.000000"
 preserveAspectRatio="xMidYMid meet">
<metadata>
Created by potrace 1.10, written by Peter Selinger 2001-2011
</metadata>
<g transform="translate(0.000000,267.000000) scale(0.100000,-0.100000)"
fill="#ff0000" stroke="none">
<path d="M1926 2558 c-30 -62 -77 -160 -105 -217 -28 -57 -51 -108 -51 -113 0
-9 73 -9 98 0 11 4 11 6 0 13 -9 6 -7 9 10 9 12 0 22 5 22 10 0 6 -13 10 -30
10 -16 0 -30 4 -30 9 0 4 16 38 35 75 36 69 60 141 56 165 -2 13 0 13 13 2 14
-12 16 -11 16 7 0 11 7 25 15 32 8 7 15 19 15 26 0 8 7 14 16 14 11 0 14 6 9
23 -5 19 -5 20 5 4 9 -14 9 -22 -1 -33 -9 -11 -8 -18 5 -32 9 -10 16 -27 16
-38 1 -18 1 -18 16 1 16 20 16 20 13 0 -5 -43 56 -190 79 -190 6 0 14 -4 19
-9 4 -5 3 -6 -4 -2 -14 8 -27 -10 -13 -19 20 -12 10 -35 -15 -35 -14 0 -25 -4
-25 -10 0 -5 7 -10 16 -10 13 0 12 -4 -5 -18 -22 -17 -22 -22 -19 -228 l3
-211 -32 21 c-43 28 -212 145 -288 200 -90 65 -328 231 -341 239 -7 4 -74 -37
-150 -91 -77 -54 -145 -101 -152 -106 -7 -4 4 22 24 58 l36 66 -56 0 -56 0 0
205 0 205 -120 0 -120 0 0 -205 0 -204 -53 -3 -54 -3 77 -145 76 -145 -88 -63
c-48 -35 -88 -66 -88 -70 0 -4 60 -187 133 -407 l134 -400 444 -3 444 -2 137
410 c121 364 134 411 120 419 -15 8 -17 32 -14 234 l3 225 54 -5 c34 -3 55 -1
55 5 0 6 -30 72 -67 147 -46 93 -69 131 -75 123 -6 -9 -7 -5 -3 9 8 30 -63
173 -76 152 -6 -10 -9 -10 -9 -1 0 35 -26 0 -74 -100z m60 56 c-4 -9 -9 -15
-11 -12 -3 3 -3 13 1 22 4 9 9 15 11 12 3 -3 3 -13 -1 -22z m-925 -236 c-2
-166 -1 -188 15 -207 14 -15 26 -19 51 -15 36 6 42 -5 18 -30 -9 -9 -17 -31
-19 -51 -2 -20 -6 -38 -10 -42 -3 -3 -6 -10 -6 -14 0 -5 73 43 162 106 l163
113 60 -42 c33 -23 170 -121 305 -216 135 -95 263 -186 286 -202 l41 -29 -131
-395 -131 -394 -431 0 -432 0 -132 396 c-119 355 -130 396 -116 407 9 7 48 32
86 57 37 25 71 51 74 59 5 11 -38 100 -114 237 -20 34 -14 49 15 38 9 -4 27
-1 41 7 l25 13 -1 190 c0 105 -1 194 0 197 0 4 41 6 92 5 l92 -1 -3 -187z
m1067 27 c-3 -3 -9 2 -12 12 -6 14 -5 15 5 6 7 -7 10 -15 7 -18z m-298 -119
c0 -3 -4 -8 -10 -11 -5 -3 -10 -1 -10 4 0 6 5 11 10 11 6 0 10 -2 10 -4z m345
-36 c3 -5 -1 -10 -10 -10 -9 0 -13 5 -10 10 3 6 8 10 10 10 2 0 7 -4 10 -10z
m-328 -6 c-3 -3 -12 -4 -19 -1 -8 3 -5 6 6 6 11 1 17 -2 13 -5z"/>
<path d="M910 2529 c0 -5 5 -7 10 -4 6 3 10 8 10 11 0 2 -4 4 -10 4 -5 0 -10
-5 -10 -11z"/>
<path d="M1020 2529 c0 -5 5 -7 10 -4 6 3 10 8 10 11 0 2 -4 4 -10 4 -5 0 -10
-5 -10 -11z"/>
<path d="M911 2494 c0 -11 3 -14 6 -6 3 7 2 16 -1 19 -3 4 -6 -2 -5 -13z"/>
<path d="M1021 2334 c0 -11 3 -14 6 -6 3 7 2 16 -1 19 -3 4 -6 -2 -5 -13z"/>
<path d="M1404 2176 c-56 -58 -286 -271 -295 -275 -6 -2 -3 8 6 23 10 14 13
26 7 26 -10 0 -25 -36 -23 -56 1 -6 -26 -36 -59 -68 -67 -65 -77 -66 -25 -2
19 24 32 46 28 50 -4 4 -3 10 3 14 21 14 61 100 53 113 -4 7 -10 11 -12 9 -11
-13 -69 -129 -71 -142 -1 -8 -14 -30 -29 -49 -20 -25 -27 -29 -27 -16 0 11 -4
15 -12 11 -7 -5 -9 -2 -6 8 8 20 -5 39 -20 30 -8 -6 -5 -18 13 -44 14 -21 25
-45 25 -55 0 -12 12 -6 44 26 24 24 49 40 55 37 6 -4 9 -1 6 6 -6 14 189 203
209 203 6 1 10 6 9 12 -2 7 32 43 74 82 42 39 75 72 72 75 -2 2 -13 -6 -25
-18z"/>
<path d="M1488 2149 c24 -26 40 -49 35 -51 -4 -3 -3 -3 4 -2 15 4 233 -204
230 -219 -1 -7 3 -11 9 -10 7 1 20 -7 29 -17 11 -12 13 -20 7 -20 -7 0 -12 5
-12 10 0 15 -17 12 -23 -4 -4 -10 -1 -13 7 -10 8 3 17 0 21 -6 5 -9 9 -9 14
-1 4 6 50 -29 115 -91 l107 -101 -37 -38 c-20 -20 -42 -35 -49 -33 -6 3 -18
-3 -26 -13 -13 -16 -12 -17 4 -4 9 8 20 12 23 9 8 -9 -167 -168 -178 -162 -6
4 -8 2 -5 -3 4 -6 -65 -80 -154 -165 -148 -141 -194 -181 -174 -148 5 9 4 11
-3 6 -15 -9 -164 133 -155 148 3 6 3 8 -2 4 -9 -8 -189 151 -181 160 3 3 14
-1 23 -9 16 -13 17 -12 4 4 -8 10 -20 16 -26 13 -7 -2 -27 10 -45 29 -18 18
-27 34 -20 37 6 2 -4 17 -22 33 -18 17 -26 22 -19 12 8 -9 12 -20 9 -23 -3 -2
-40 28 -83 68 l-77 72 32 29 c23 21 35 26 40 17 5 -9 9 -9 14 -1 4 6 2 11 -3
11 -7 0 -7 7 1 20 7 11 18 18 25 16 7 -3 10 1 6 10 -4 12 -20 1 -64 -42 -33
-32 -59 -59 -59 -60 0 -2 301 -291 410 -394 20 -19 71 -68 112 -107 42 -40 80
-73 86 -73 5 0 37 26 69 58 87 83 397 381 473 452 l65 61 -223 217 c-122 119
-234 228 -247 241 -14 12 -22 28 -18 34 3 5 1 7 -5 3 -6 -3 -17 -1 -24 6 -66
60 -80 69 -40 27z m-468 -679 c0 -5 -2 -10 -4 -10 -3 0 -8 5 -11 10 -3 6 -1
10 4 10 6 0 11 -4 11 -10z"/>
<path d="M1379 2123 c-13 -17 -13 -17 6 -3 11 8 22 16 24 17 2 2 0 3 -6 3 -6
0 -17 -8 -24 -17z"/>
<path d="M1470 2136 c0 -2 8 -10 18 -17 15 -13 16 -12 3 4 -13 16 -21 21 -21
13z"/>
<path d="M1305 2050 c-3 -5 -1 -10 4 -10 6 0 11 5 11 10 0 6 -2 10 -4 10 -3 0
-8 -4 -11 -10z"/>
<path d="M1387 1888 l-45 -113 -118 -6 c-66 -4 -135 -7 -154 -8 l-35 -1 35
-22 c19 -13 37 -26 38 -30 2 -5 8 -8 13 -8 5 0 32 -15 61 -34 70 -44 102 -60
94 -48 -3 5 -38 29 -78 52 -40 24 -75 46 -78 49 -3 4 -16 12 -30 18 -29 13
-42 12 149 18 57 2 107 8 111 12 3 4 19 42 35 83 15 41 32 79 36 85 5 5 9 18
9 29 0 33 15 7 54 -94 21 -52 41 -98 44 -102 4 -4 50 -8 102 -9 53 -1 114 -5
135 -9 34 -6 37 -8 20 -15 -11 -5 -26 -15 -34 -23 -9 -8 -24 -11 -40 -7 -16 3
-21 2 -13 -3 10 -7 6 -13 -15 -27 -15 -10 -42 -28 -60 -41 -31 -23 -31 -24
-18 -66 7 -24 25 -73 38 -110 14 -38 21 -68 16 -68 -5 0 -9 4 -9 9 0 5 -9 12
-19 16 -11 3 -59 28 -106 56 l-86 49 -102 -57 c-117 -65 -112 -62 -106 -67 2
-2 50 22 106 55 l102 59 73 -43 c40 -24 95 -56 122 -71 l49 -28 -5 23 c-3 13
-21 68 -41 121 l-36 98 95 57 c53 32 106 66 118 75 20 16 20 17 1 17 -11 1
-79 4 -150 7 l-131 6 -44 114 c-25 62 -48 114 -51 114 -4 0 -27 -51 -52 -112z"/>
<path d="M1209 1953 l-24 -28 28 24 c25 23 32 31 24 31 -2 0 -14 -12 -28 -27z"/>
<path d="M1380 1945 c0 -8 2 -15 4 -15 2 0 6 7 10 15 3 8 1 15 -4 15 -6 0 -10
-7 -10 -15z"/>
<path d="M1680 1936 c0 -2 8 -10 18 -17 15 -13 16 -12 3 4 -13 16 -21 21 -21
13z"/>
<path d="M995 1920 c-3 -5 -1 -10 4 -10 6 0 11 5 11 10 0 6 -2 10 -4 10 -3 0
-8 -4 -11 -10z"/>
<path d="M1435 1910 c3 -5 8 -10 11 -10 2 0 4 5 4 10 0 6 -5 10 -11 10 -5 0
-7 -4 -4 -10z"/>
<path d="M1365 1899 c-4 -6 -5 -12 -2 -15 2 -3 7 2 10 11 7 17 1 20 -8 4z"/>
<path d="M951 1889 c0 -9 2 -18 5 -22 8 -8 34 3 34 15 0 6 -6 6 -14 -1 -11
-10 -15 -8 -19 6 -4 14 -5 14 -6 2z"/>
<path d="M1510 1881 c0 -6 4 -13 10 -16 6 -3 7 1 4 9 -7 18 -14 21 -14 7z"/>
<path d="M1025 1780 c-10 -11 -14 -20 -9 -20 5 0 15 9 22 20 7 11 11 20 9 20
-2 0 -12 -9 -22 -20z"/>
<path d="M1545 1790 c3 -5 8 -10 11 -10 2 0 4 5 4 10 0 6 -5 10 -11 10 -5 0
-7 -4 -4 -10z"/>
<path d="M1820 1793 c0 -5 14 -17 30 -28 16 -11 30 -23 30 -27 0 -5 5 -8 12
-8 7 0 -5 16 -26 35 -40 36 -46 40 -46 28z"/>
<path d="M1145 1730 c-3 -5 1 -10 10 -10 9 0 13 5 10 10 -3 6 -8 10 -10 10 -2
0 -7 -4 -10 -10z"/>
<path d="M1550 1730 c-11 -8 -7 -9 15 -4 37 8 45 14 19 14 -10 0 -26 -5 -34
-10z"/>
<path d="M1120 1680 c0 -5 5 -10 11 -10 5 0 7 5 4 10 -3 6 -8 10 -11 10 -2 0
-4 -4 -4 -10z"/>
<path d="M1941 1683 c0 -5 17 -21 37 -37 l37 -30 -34 37 c-36 38 -42 42 -40
30z"/>
<path d="M875 1640 c-10 -11 -15 -20 -11 -20 11 0 39 30 34 36 -3 2 -13 -5
-23 -16z"/>
<path d="M1689 1643 c-13 -17 -13 -17 6 -3 11 8 22 16 24 17 2 2 0 3 -6 3 -6
0 -17 -8 -24 -17z"/>
<path d="M1234 1589 c-1 -26 0 -27 12 -11 17 22 17 29 2 35 -9 3 -13 -6 -14
-24z"/>
<path d="M1630 1610 c-9 -6 -10 -10 -3 -10 6 0 15 5 18 10 8 12 4 12 -15 0z"/>
<path d="M892 1594 c10 -10 20 -16 22 -13 3 3 -5 11 -17 18 -21 13 -21 12 -5
-5z"/>
<path d="M1270 1597 c0 -2 -17 -51 -39 -110 -21 -59 -35 -110 -30 -113 9 -5
13 3 10 19 -1 4 12 42 28 85 36 94 44 122 37 122 -3 0 -6 -1 -6 -3z"/>
<path d="M844 1571 c7 -11 46 -35 46 -28 0 3 -12 12 -26 22 -15 9 -23 12 -20
6z"/>
<path d="M1630 1570 c0 -5 5 -10 11 -10 5 0 7 5 4 10 -3 6 -8 10 -11 10 -2 0
-4 -4 -4 -10z"/>
<path d="M945 1540 c10 -11 20 -20 23 -20 3 0 -3 9 -13 20 -10 11 -20 20 -23
20 -3 0 3 -9 13 -20z"/>
<path d="M1221 1534 c0 -11 3 -14 6 -6 3 7 2 16 -1 19 -3 4 -6 -2 -5 -13z"/>
<path d="M1428 1543 c7 -3 16 -2 19 1 4 3 -2 6 -13 5 -11 0 -14 -3 -6 -6z"/>
<path d="M1650 1521 c0 -6 4 -13 10 -16 6 -3 7 1 4 9 -7 18 -14 21 -14 7z"/>
<path d="M1271 1504 c0 -11 3 -14 6 -6 3 7 2 16 -1 19 -3 4 -6 -2 -5 -13z"/>
<path d="M1880 1509 c0 -5 5 -7 10 -4 6 3 10 8 10 11 0 2 -4 4 -10 4 -5 0 -10
-5 -10 -11z"/>
<path d="M1197 1471 c-4 -17 -3 -21 5 -13 5 5 8 16 6 23 -3 8 -7 3 -11 -10z"/>
<path d="M1834 1458 l-29 -33 33 29 c30 28 37 36 29 36 -2 0 -16 -15 -33 -32z"/>
<path d="M1671 1470 c0 -14 28 -72 29 -59 0 4 -7 22 -15 40 -8 19 -14 27 -14
19z"/>
<path d="M1250 1450 c-13 -8 -12 -10 3 -10 9 0 17 5 17 10 0 12 -1 12 -20 0z"/>
<path d="M1615 1440 c3 -5 8 -10 11 -10 2 0 4 5 4 10 0 6 -5 10 -11 10 -5 0
-7 -4 -4 -10z"/>
<path d="M1668 1353 c7 -3 16 -2 19 1 4 3 -2 6 -13 5 -11 0 -14 -3 -6 -6z"/>
<path d="M1694 1328 l-29 -33 33 29 c30 28 37 36 29 36 -2 0 -16 -15 -33 -32z"/>
<path d="M1719 1283 c-13 -16 -12 -17 4 -4 9 7 17 15 17 17 0 8 -8 3 -21 -13z"/>
<path d="M1639 1273 c-13 -16 -12 -17 4 -4 16 13 21 21 13 21 -2 0 -10 -8 -17
-17z"/>
<path d="M1655 1229 c-11 -16 -1 -19 13 -3 7 8 8 14 3 14 -5 0 -13 -5 -16 -11z"/>
<path d="M1567 1213 c-4 -3 -7 -11 -7 -17 0 -6 5 -5 12 2 6 6 9 14 7 17 -3 3
-9 2 -12 -2z"/>
<path d="M1344 1163 c28 -29 52 -50 55 -48 2 3 2 6 0 8 -2 1 -27 22 -54 47
l-50 45 49 -52z"/>
<path d="M1509 1153 c-13 -16 -12 -17 4 -4 16 13 21 21 13 21 -2 0 -10 -8 -17
-17z"/>
<path d="M1469 1113 c-13 -16 -12 -17 4 -4 16 13 21 21 13 21 -2 0 -10 -8 -17
-17z"/>
<path d="M1914 2090 c0 -85 2 -120 3 -77 2 42 2 112 0 155 -1 42 -3 7 -3 -78z"/>
<path d="M2084 2030 c0 -118 2 -167 3 -107 2 59 2 155 0 215 -1 59 -3 10 -3
-108z"/>
<path d="M1887 2213 c-11 -10 -8 -241 3 -248 6 -4 10 40 10 124 0 72 -1 131
-3 131 -2 0 -7 -3 -10 -7z"/>
</g>
</svg>
